<?xml version="1.0" encoding="UTF-8" standalone="no"?>
<!-- Created with Inkscape (http://www.inkscape.org/) -->

<svg
   xmlns:dc="http://purl.org/dc/elements/1.1/"
   xmlns:cc="http://creativecommons.org/ns#"
   xmlns:rdf="http://www.w3.org/1999/02/22-rdf-syntax-ns#"
   xmlns:svg="http://www.w3.org/2000/svg"
   xmlns="http://www.w3.org/2000/svg"
   xmlns:sodipodi="http://sodipodi.sourceforge.net/DTD/sodipodi-0.dtd"
   xmlns:inkscape="http://www.inkscape.org/namespaces/inkscape"
   width="16px"
   height="16px"
   id="svg3285"
   version="1.1"
   inkscape:version="0.48.4 r9939"
   sodipodi:docname="Nouveau document 2">
  <defs
     id="defs3287" />
  <sodipodi:namedview
     id="base"
     pagecolor="#ffffff"
     bordercolor="#666666"
     borderopacity="1.0"
     inkscape:pageopacity="0.0"
     inkscape:pageshadow="2"
     inkscape:zoom="5.5494505"
     inkscape:cx="5.7161683"
     inkscape:cy="7.7745407"
     inkscape:current-layer="layer1"
     showgrid="true"
     inkscape:grid-bbox="true"
     inkscape:document-units="px"
     inkscape:window-width="597"
     inkscape:window-height="435"
     inkscape:window-x="1"
     inkscape:window-y="92"
     inkscape:window-maximized="0" />
  <metadata
     id="metadata3290">
    <rdf:RDF>
      <cc:Work
         rdf:about="">
        <dc:format>image/svg+xml</dc:format>
        <dc:type
           rdf:resource="http://purl.org/dc/dcmitype/StillImage" />
        <dc:title></dc:title>
      </cc:Work>
    </rdf:RDF>
  </metadata>
  <g
     id="layer1"
     inkscape:label="Layer 1"
     inkscape:groupmode="layer">
    <path
       inkscape:connector-curvature="0"
       style="fill:#333333;fill-opacity:1;stroke:#333333;stroke-width:0;overflow:hidden"
       d="m 7.1373708,1.1282798 c 0,0 -3.2597612,0 -3.2597612,0 0,0 -2.666656,2.6666575 -2.666656,2.6666575 0,0 0,3.2597597 0,3.2597597 0,0 8.0496952,8.049697 8.0496952,8.049697 0,0 5.9264192,-5.9269291 5.9264192,-5.9269291 0,0 -8.0496972,-8.0491851 -8.0496972,-8.0491851 0,0 0,0 0,0 m -3.9820449,3.092646 c -0.3173122,-0.3173137 -0.3173122,-0.8314716 0,-1.1482722 0.3173137,-0.3173136 0.8314715,-0.3173136 1.1487852,0 0.3178268,0.3178253 0.3173122,0.8309585 0,1.1487852 C 3.9867974,4.538751 3.4726396,4.538751 3.1553259,4.220917 c 0,0 0,0 0,0"
       id="path8" />
    <circle
       sodipodi:ry="0.1"
       sodipodi:rx="0.1"
       sodipodi:cy="2.826"
       sodipodi:cx="14.263"
       style="opacity:0;fill:#333333;stroke:#333333;stroke-width:0.1;overflow:hidden"
       cx="14.263"
       cy="2.826"
       r="0.1"
       transform="matrix(0.51262153,0,0,0.51262153,-0.17415005,-0.32038872)"
       id="circle10" />
    <circle
       sodipodi:ry="0.1"
       sodipodi:rx="0.1"
       sodipodi:cy="2.826"
       sodipodi:cx="7.9039998"
       style="opacity:0;fill:#333333;stroke:#333333;stroke-width:0.1;overflow:hidden"
       cx="7.9039998"
       cy="2.826"
       r="0.1"
       transform="matrix(0.51262153,0,0,0.51262153,-0.17415005,-0.32038872)"
       id="circle12" />
    <path
       inkscape:connector-curvature="0"
       style="opacity:0;fill:#333333;stroke:#333333;stroke-width:0.05126216;overflow:hidden"
       d="m 7.1373708,1.1282798 0,0 m -3.2597612,0 0,0"
       id="path14" />
    <circle
       sodipodi:ry="0.1"
       sodipodi:rx="0.1"
       sodipodi:cy="2.826"
       sodipodi:cx="7.9039998"
       style="opacity:0;fill:#333333;stroke:#333333;stroke-width:0.1;overflow:hidden"
       cx="7.9039998"
       cy="2.826"
       r="0.1"
       transform="matrix(0.51262153,0,0,0.51262153,-0.17415005,-0.32038872)"
       id="circle16" />
    <circle
       sodipodi:ry="0.1"
       sodipodi:rx="0.1"
       sodipodi:cy="8.0279999"
       sodipodi:cx="2.7019999"
       style="opacity:0;fill:#333333;stroke:#333333;stroke-width:0.1;overflow:hidden"
       cx="2.7019999"
       cy="8.0279999"
       r="0.1"
       transform="matrix(0.51262153,0,0,0.51262153,-0.17415005,-0.32038872)"
       id="circle18" />
    <path
       inkscape:connector-curvature="0"
       style="opacity:0;fill:#333333;stroke:#333333;stroke-width:0.05126216;overflow:hidden"
       d="m 3.8776096,1.1282798 0,0 m -2.666656,2.6666575 0,0"
       id="path20" />
    <circle
       sodipodi:ry="0.1"
       sodipodi:rx="0.1"
       sodipodi:cy="8.0279999"
       sodipodi:cx="2.7019999"
       style="opacity:0;fill:#333333;stroke:#333333;stroke-width:0.1;overflow:hidden"
       cx="2.7019999"
       cy="8.0279999"
       r="0.1"
       transform="matrix(0.51262153,0,0,0.51262153,-0.17415005,-0.32038872)"
       id="circle22" />
    <circle
       sodipodi:ry="0.1"
       sodipodi:rx="0.1"
       sodipodi:cy="14.387"
       sodipodi:cx="2.7019999"
       style="opacity:0;fill:#333333;stroke:#333333;stroke-width:0.1;overflow:hidden"
       cx="2.7019999"
       cy="14.387"
       r="0.1"
       transform="matrix(0.51262153,0,0,0.51262153,-0.17415005,-0.32038872)"
       id="circle24" />
    <path
       inkscape:connector-curvature="0"
       style="opacity:0;fill:#333333;stroke:#333333;stroke-width:0.05126216;overflow:hidden"
       d="m 1.2109536,3.7949373 0,0 m 0,3.2597597 0,0"
       id="path26" />
    <circle
       sodipodi:ry="0.1"
       sodipodi:rx="0.1"
       sodipodi:cy="14.387"
       sodipodi:cx="2.7019999"
       style="opacity:0;fill:#333333;stroke:#333333;stroke-width:0.1;overflow:hidden"
       cx="2.7019999"
       cy="14.387"
       r="0.1"
       transform="matrix(0.51262153,0,0,0.51262153,-0.17415005,-0.32038872)"
       id="circle28" />
    <circle
       sodipodi:ry="0.1"
       sodipodi:rx="0.1"
       sodipodi:cy="30.09"
       sodipodi:cx="18.405001"
       style="opacity:0;fill:#333333;stroke:#333333;stroke-width:0.1;overflow:hidden"
       cx="18.405001"
       cy="30.09"
       r="0.1"
       transform="matrix(0.51262153,0,0,0.51262153,-0.17415005,-0.32038872)"
       id="circle30" />
    <path
       inkscape:connector-curvature="0"
       style="opacity:0;fill:#333333;stroke:#333333;stroke-width:0.05126216;overflow:hidden"
       d="m 1.2109536,7.054697 0,0 m 8.0496952,8.049697 0,0"
       id="path32" />
    <circle
       sodipodi:ry="0.1"
       sodipodi:rx="0.1"
       sodipodi:cy="30.09"
       sodipodi:cx="18.405001"
       style="opacity:0;fill:#333333;stroke:#333333;stroke-width:0.1;overflow:hidden"
       cx="18.405001"
       cy="30.09"
       r="0.1"
       transform="matrix(0.51262153,0,0,0.51262153,-0.17415005,-0.32038872)"
       id="circle34" />
    <circle
       sodipodi:ry="0.1"
       sodipodi:rx="0.1"
       sodipodi:cy="18.528"
       sodipodi:cx="29.966"
       style="opacity:0;fill:#333333;stroke:#333333;stroke-width:0.1;overflow:hidden"
       cx="29.966"
       cy="18.528"
       r="0.1"
       transform="matrix(0.51262153,0,0,0.51262153,-0.17415005,-0.32038872)"
       id="circle36" />
    <path
       inkscape:connector-curvature="0"
       style="opacity:0;fill:#333333;stroke:#333333;stroke-width:0.05126216;overflow:hidden"
       d="m 9.2606488,15.104394 0,0 m 5.9264192,-5.9269291 0,0"
       id="path38" />
    <circle
       sodipodi:ry="0.1"
       sodipodi:rx="0.1"
       sodipodi:cy="18.528"
       sodipodi:cx="29.966"
       style="opacity:0;fill:#333333;stroke:#333333;stroke-width:0.1;overflow:hidden"
       cx="29.966"
       cy="18.528"
       r="0.1"
       transform="matrix(0.51262153,0,0,0.51262153,-0.17415005,-0.32038872)"
       id="circle40" />
    <circle
       sodipodi:ry="0.1"
       sodipodi:rx="0.1"
       sodipodi:cy="2.826"
       sodipodi:cx="14.263"
       style="opacity:0;fill:#333333;stroke:#333333;stroke-width:0.1;overflow:hidden"
       cx="14.263"
       cy="2.826"
       r="0.1"
       transform="matrix(0.51262153,0,0,0.51262153,-0.17415005,-0.32038872)"
       id="circle42" />
    <path
       inkscape:connector-curvature="0"
       style="opacity:0;fill:#333333;stroke:#333333;stroke-width:0.05126216;overflow:hidden"
       d="m 15.187068,9.1774649 0,0 m -8.0496972,-8.0491851 0,0"
       id="path44" />
    <circle
       sodipodi:ry="0.1"
       sodipodi:rx="0.1"
       sodipodi:cy="2.826"
       sodipodi:cx="14.263"
       style="opacity:0;fill:#333333;stroke:#333333;stroke-width:0.1;overflow:hidden"
       cx="14.263"
       cy="2.826"
       r="0.1"
       transform="matrix(0.51262153,0,0,0.51262153,-0.17415005,-0.32038872)"
       id="circle46" />
    <circle
       sodipodi:ry="0.1"
       sodipodi:rx="0.1"
       sodipodi:cy="2.826"
       sodipodi:cx="14.263"
       style="opacity:0;fill:#333333;stroke:#333333;stroke-width:0.1;overflow:hidden"
       cx="14.263"
       cy="2.826"
       r="0.1"
       transform="matrix(0.51262153,0,0,0.51262153,-0.17415005,-0.32038872)"
       id="circle48" />
    <path
       inkscape:connector-curvature="0"
       style="opacity:0;fill:#333333;stroke:#333333;stroke-width:0.05126216;overflow:hidden"
       d="m 7.1373708,1.1282798 0,0 m 0,0 0,0"
       id="path50" />
    <circle
       sodipodi:ry="0.1"
       sodipodi:rx="0.1"
       sodipodi:cy="8.2399998"
       sodipodi:cx="5.8759999"
       style="opacity:0;fill:#333333;stroke:#333333;stroke-width:0.1;overflow:hidden"
       cx="5.8759999"
       cy="8.2399998"
       r="0.1"
       transform="matrix(0.51262153,0,0,0.51262153,-0.17415005,-0.32038872)"
       id="circle52" />
    <circle
       sodipodi:ry="0.1"
       sodipodi:rx="0.1"
       sodipodi:cy="7.237"
       sodipodi:cx="5.8759999"
       style="opacity:0;fill:#333333;stroke:#333333;stroke-width:0.1;overflow:hidden"
       cx="5.8759999"
       cy="7.237"
       r="0.1"
       transform="matrix(0.51262153,0,0,0.51262153,-0.17415005,-0.32038872)"
       id="circle54" />
    <path
       inkscape:connector-curvature="0"
       style="opacity:0;fill:#333333;stroke:#333333;stroke-width:0.05126216;overflow:hidden"
       d="M 3.1553259,4.2209258 2.8380137,3.9036121 m 0,-0.5141579 0.3173122,-0.3168006"
       id="path56" />
    <circle
       sodipodi:ry="0.1"
       sodipodi:rx="0.1"
       sodipodi:cy="6"
       sodipodi:cx="7.1139998"
       style="opacity:0;fill:#333333;stroke:#333333;stroke-width:0.1;overflow:hidden"
       cx="7.1139998"
       cy="6"
       r="0.1"
       transform="matrix(0.51262153,0,0,0.51262153,-0.17415005,-0.32038872)"
       id="circle58" />
    <circle
       sodipodi:ry="0.1"
       sodipodi:rx="0.1"
       sodipodi:cy="6"
       sodipodi:cx="8.1169996"
       style="opacity:0;fill:#333333;stroke:#333333;stroke-width:0.1;overflow:hidden"
       cx="8.1169996"
       cy="6"
       r="0.1"
       transform="matrix(0.51262153,0,0,0.51262153,-0.17415005,-0.32038872)"
       id="circle60" />
    <path
       inkscape:connector-curvature="0"
       style="opacity:0;fill:#333333;stroke:#333333;stroke-width:0.05126216;overflow:hidden"
       d="M 3.1553259,3.0726536 3.4726396,2.75534 m 0.5141578,0 0.3173137,0.3173136"
       id="path62" />
    <circle
       sodipodi:ry="0.1"
       sodipodi:rx="0.1"
       sodipodi:cy="7.2389998"
       sodipodi:cx="9.3559999"
       style="opacity:0;fill:#333333;stroke:#333333;stroke-width:0.1;overflow:hidden"
       cx="9.3559999"
       cy="7.2389998"
       r="0.1"
       transform="matrix(0.51262153,0,0,0.51262153,-0.17415005,-0.32038872)"
       id="circle64" />
    <circle
       sodipodi:ry="0.1"
       sodipodi:rx="0.1"
       sodipodi:cy="8.2399998"
       sodipodi:cx="9.3549995"
       style="opacity:0;fill:#333333;stroke:#333333;stroke-width:0.1;overflow:hidden"
       cx="9.3549995"
       cy="8.2399998"
       r="0.1"
       transform="matrix(0.51262153,0,0,0.51262153,-0.17415005,-0.32038872)"
       id="circle66" />
    <path
       inkscape:connector-curvature="0"
       style="opacity:0;fill:#333333;stroke:#333333;stroke-width:0.05126216;overflow:hidden"
       d="M 4.3041111,3.0726536 4.6219379,3.3904789 M 4.6213371,3.9036121 4.3040234,4.2214388"
       id="path68" />
    <circle
       sodipodi:ry="0.1"
       sodipodi:rx="0.1"
       sodipodi:cy="9.4790001"
       sodipodi:cx="8.1169996"
       style="opacity:0;fill:#333333;stroke:#333333;stroke-width:0.1;overflow:hidden"
       cx="8.1169996"
       cy="9.4790001"
       r="0.1"
       transform="matrix(0.51262153,0,0,0.51262153,-0.17415005,-0.32038872)"
       id="circle70" />
    <circle
       sodipodi:ry="0.1"
       sodipodi:rx="0.1"
       sodipodi:cy="9.4790001"
       sodipodi:cx="7.1139998"
       style="opacity:0;fill:#333333;stroke:#333333;stroke-width:0.1;overflow:hidden"
       cx="7.1139998"
       cy="9.4790001"
       r="0.1"
       transform="matrix(0.51262153,0,0,0.51262153,-0.17415005,-0.32038872)"
       id="circle72" />
    <path
       inkscape:connector-curvature="0"
       style="opacity:0;fill:#333333;stroke:#333333;stroke-width:0.05126216;overflow:hidden"
       d="M 4.3041111,4.2214388 3.9867974,4.538751 m -0.5141578,0 -0.3173137,-0.3178252"
       id="path74" />
    <circle
       sodipodi:ry="0.1"
       sodipodi:rx="0.1"
       sodipodi:cy="8.8590002"
       sodipodi:cx="6.4949999"
       style="opacity:0;fill:#333333;stroke:#333333;stroke-width:0.1;overflow:hidden"
       cx="6.4949999"
       cy="8.8590002"
       r="0.1"
       transform="matrix(0.51262153,0,0,0.51262153,-0.17415005,-0.32038872)"
       id="circle76" />
    <circle
       sodipodi:ry="0.1"
       sodipodi:rx="0.1"
       sodipodi:cy="8.8590002"
       sodipodi:cx="6.4949999"
       style="opacity:0;fill:#333333;stroke:#333333;stroke-width:0.1;overflow:hidden"
       cx="6.4949999"
       cy="8.8590002"
       r="0.1"
       transform="matrix(0.51262153,0,0,0.51262153,-0.17415005,-0.32038872)"
       id="circle78" />
    <path
       inkscape:connector-curvature="0"
       style="opacity:0;fill:#333333;stroke:#333333;stroke-width:0.05126216;overflow:hidden"
       d="m 3.1553259,4.2209258 0,0 m 0,0 0,0"
       id="path80" />
  </g>
</svg>
